# xmcd
#
# Track frame offsets:
#	150
#	13128
#	34079
#	49743
#	63333
#	78751
#	93224
#	116035
#	130781
#	147933
#	165659
#	181802
#	198769
#	215785
#	232002
#	247479
#	262655
#	287128
#	303382
#
# Disc length: 4271 seconds
#
# Revision: 2
# Processed by: cddbd v1.5.2PL0 Copyright (c) Steve Scherf et al.
# Submitted via: audiograbber 1.83.01
#
DISCID=0d10ad13
DTITLE=Various Artist - Promo Only Country Radio January 2008
DYEAR=2008
DGENRE=Country
TTITLE0=Toby Keith - Get My Drink On
TTITLE1=Alan Jackson - Small Town Southern Man
TTITLE2=Faith Hill - Red Umbrella
TTITLE3=Big and Rich - Loud
TTITLE4=Terri Clark - In My Next Life
TTITLE5=Whiskey Falls - Falling Into You
TTITLE6=Reba McEntire and Justin Timberlake - The Only Promise That Remains
TTITLE7=The Road Hammers - I Don't Know When To Quit
TTITLE8=Brooks and Dunn - God Must Be Busy
TTITLE9=Phil Vassar - Love Is A Beautiful Thing
TTITLE10=Rio Grand - The Storm Inside Of Me
TTITLE11=Josh Gracin - We Weren't Crazy
TTITLE12=Lila McCann - That's What Angels Do
TTITLE13=Stephen Cochran - Everything We Knew
TTITLE14=Ansel Brown - Mine's Bigger
TTITLE15=The Bridge - Get Back Up
TTITLE16=Chute Nine - 80 Acres
TTITLE17=Blue Rodeo - 3 Hours Away
TTITLE18=Star De Azlan - She's Pretty
EXTD=
EXTT0=
EXTT1=
EXTT2=
EXTT3=
EXTT4=
EXTT5=
EXTT6=
EXTT7=
EXTT8=
EXTT9=
EXTT10=
EXTT11=
EXTT12=
EXTT13=
EXTT14=
EXTT15=
EXTT16=
EXTT17=
EXTT18=
PLAYORDER=
